#!OML:ASF H:\Terrain\Patient Classification 1\Walking\steve\steve.ASF
:FULLY-SPECIFIED
:DEGREES
166
root 8.99475 16.0295 -5.19025 9.1025 -7.51494 0.186487
lowerback 0.856279 3.72852 -4.48133
upperback -3.03526 4.7923 -1.96687
thorax -3.81254 2.48698 0.261304
lowerneck -8.94497 -0.757787 -2.77288
upperneck 12.6353 -1.27059 4.6848
head 5.31896 -0.430708 1.82729
rclavicle -4.84538e-014 -6.36111e-015
rhumerus -51.351 -3.44811 -83.7089
rradius 31.2396
rwrist 3.37965
rhand -14.9186 -34.7101
rfingers 7.12502
rthumb 11.2432 -64.3888
lclavicle -4.84538e-014 -6.36111e-015
lhumerus -27.7072 6.91246 75.9569
lradius 27.0857
lwrist 5.80288
lhand -25.1393 -18.3464
lfingers 7.12502
lthumb 1.377 11.6289
rfemur -25.3828 3.31069 21.3678
rtibia 63.4342
rfoot -18.4803 1.44252
rtoes -7.79758
lfemur -24.0856 2.87432 -25.2483
ltibia 39.5872
lfoot -22.8038 -0.520277
ltoes 1.87356
167
root 8.99767 16.0341 -5.04404 9.0923 -7.21849 0.153516
lowerback 0.730402 3.56273 -4.39189
upperback -2.98229 4.58735 -1.83434
thorax -3.68106 2.38253 0.37009
lowerneck -8.77391 -0.723683 -2.79543
upperneck 12.6153 -1.20984 4.58509
head 5.28078 -0.411161 1.80408
rclavicle -7.70291e-015 5.56597e-015
rhumerus -51.6923 -3.54535 -83.4795
rradius 30.9301
rwrist 3.3633
rhand -14.3116 -35.0399
rfingers 7.12502
rthumb 11.8286 -64.6858
lclavicle -7.70291e-015 5.56597e-015
lhumerus -26.2426 6.74442 76.601
lradius 27.2017
lwrist 5.99061
lhand -24.8327 -18.7961
lfingers 7.12502
lthumb 1.67318 11.1771
rfemur -26.9434 3.15126 21.6461
rtibia 62.8348
rfoot -19.3316 1.80237
rtoes -8.37505
lfemur -23.202 2.80465 -25.1698
ltibia 38.9534
lfoot -22.912 -0.967
ltoes 2.1674
168
root 9.00106 16.0453 -4.89694 9.07915 -6.97857 -0.00817417
lowerback 0.681618 3.39494 -4.18652
upperback -3.00171 4.37509 -1.70503
thorax -3.65827 2.27329 0.402544
lowerneck -8.46254 -0.648851 -2.68158
upperneck 12.566 -1.11505 4.48645
head 5.20776 -0.370195 1.76093
rclavicle -4.90998e-014 1.90833e-014
rhumerus -52.2542 -3.81611 -83.204
rradius 30.5823
rwrist 3.86876
rhand -14.2025 -35.127
rfingers 7.12502
rthumb 11.9338 -64.7668
lclavicle -4.90998e-014 1.90833e-014
lhumerus -24.7567 6.24506 77.1625
lradius 26.9463
lwrist 6.26165
lhand -24.8061 -19.4862
lfingers 7.12502
lthumb 1.69886 10.4868
rfemur -28.4824 3.09831 22.0883
rtibia 62.1021
rfoot -19.9099 1.68618
rtoes -10.3047
lfemur -22.3287 2.58218 -24.9488
ltibia 38.3551
lfoot -23.1947 -1.26544
ltoes 1.909
169
root 9.00847 16.0506 -4.7334 8.7185 -6.82866 0.47236
lowerback 0.829963 3.19058 -4.60187
upperback -3.00043 4.08138 -1.71888
thorax -3.75904 2.13957 0.621499
lowerneck -8.25783 -0.546495 -2.47808
upperneck 12.8236 -0.992611 4.31464
head 5.24653 -0.312868 1.68361
rclavicle -4.22417e-015 3.26007e-014
rhumerus -52.9759 -4.07017 -82.8676
rradius 30.2505
rwrist 4.5247
rhand -14.0949 -35.3129
rfingers 7.12502
rthumb 12.0376 -64.9467
lclavicle -4.22417e-015 3.26007e-014
lhumerus -23.5967 5.53791 77.6612
lradius 26.9516
lwrist 6.71635
lhand -24.5536 -19.2566
lfingers 7.12502
lthumb 1.94273 10.7143
rfemur -29.6065 2.91364 21.773
rtibia 61.2191
rfoot -20.3387 1.78067
rtoes -11.6534
lfemur -21.0742 2.34259 -25.4792
ltibia 37.821
lfoot -23.4238 -1.7348
ltoes 3.59228
170
root 9.01814 16.0585 -4.56758 8.30234 -6.53955 0.976299
lowerback 1.03793 2.97813 -4.92331
upperback -2.95304 3.77606 -1.73781
thorax -3.83416 1.99665 0.784236
lowerneck -8.19681 -0.448594 -2.43177
upperneck 13.2291 -0.865116 4.21032
head 5.35678 -0.253451 1.65455
rclavicle -5.91384e-015 -1.59028e-014
rhumerus -53.6339 -4.1249 -82.62
rradius 30.2132
rwrist 4.5481
rhand -13.7105 -35.7801
rfingers 7.12502
rthumb 12.4082 -65.3918
lclavicle -5.91384e-015 -1.59028e-014
lhumerus -22.6337 5.11559 78.1528
lradius 27.5402
lwrist 6.68925
lhand -24.1728 -18.3356
lfingers 7.12502
lthumb 2.31049 11.6317
rfemur -30.6155 2.51217 21.4108
rtibia 60.2448
rfoot -20.9228 1.98505
rtoes -12.7246
lfemur -19.6358 2.32536 -26.0695
ltibia 37.192
lfoot -23.4405 -2.00816
ltoes 2.82532
171
root 9.02413 16.0742 -4.41402 8.16897 -6.06683 0.917658
lowerback 1.11607 2.77507 -4.68062
upperback -2.93572 3.5109 -1.65544
thorax -3.83525 1.85889 0.745407
lowerneck -8.52014 -0.287297 -2.41017
upperneck 13.9277 -0.680951 4.31807
head 5.62325 -0.146903 1.70306
rclavicle 3.57067e-014 -2.34566e-014
rhumerus -54.085 -4.44933 -82.2883
rradius 30.1279
rwrist 4.49721
rhand -13.5802 -35.6518
rfingers 7.12502
rthumb 12.5339 -65.2559
lclavicle 3.57067e-014 -2.34566e-014
lhumerus -21.4872 4.21532 78.7073
lradius 27.939
lwrist 6.90184
lhand -24.4516 -18.3201
lfingers 7.12502
lthumb 2.04124 11.6499
rfemur -31.7981 2.19488 21.6951
rtibia 59.1348
rfoot -21.7155 1.8327
rtoes -14.3513
lfemur -18.4315 2.34614 -26.0438
ltibia 36.4315
lfoot -23.3637 -1.69079
ltoes -1.54187
172
root 9.02789 16.0844 -4.26046 8.11624 -5.60857 0.99768
lowerback 1.14572 2.55362 -4.71346
upperback -2.98782 3.21374 -1.55778
thorax -3.8989 1.71538 0.876316
lowerneck -8.45008 -0.198705 -2.53011
upperneck 14.2471 -0.589779 4.55473
head 5.70819 -0.0904916 1.80651
rclavicle -2.03009e-014 5.56597e-015
rhumerus -54.2916 -5.1174 -81.5397
rradius 29.4383
rwrist 5.12295
rhand -13.2873 -34.8637
rfingers 7.12502
rthumb 12.8163 -64.4503
lclavicle -2.03009e-014 5.56597e-015
lhumerus -20.3904 2.82836 79.3407
lradius 28.084
lwrist 7.86254
lhand -24.9742 -19.1627
lfingers 7.12502
lthumb 1.53648 10.8115
rfemur -32.9559 1.96276 21.8104
rtibia 57.8991
rfoot -22.2772 1.70358
rtoes -15.0336
lfemur -17.3509 2.15825 -26.1501
ltibia 35.6146
lfoot -23.2414 -1.37821
ltoes -4.39711
173
root 9.03321 16.0976 -4.09631 8.04161 -5.20059 1.34051
lowerback 1.11621 2.31234 -5.10684
upperback -3.0763 2.88233 -1.42187
thorax -3.98599 1.56748 1.2502
lowerneck -7.52909 -0.222486 -2.81426
upperneck 13.7788 -0.588058 4.58081
head 5.40437 -0.116339 1.85598
rclavicle -4.72114e-016 7.95139e-015
rhumerus -54.643 -5.51532 -80.6836
rradius 28.6907
rwrist 5.96768
rhand -13.0635 -34.6042
rfingers 7.12502
rthumb 13.032 -64.1771
lclavicle -4.72114e-016 7.95139e-015
lhumerus -19.4182 1.87343 80.0149
lradius 28.2843
lwrist 8.42173
lhand -25.2394 -19.3918
lfingers 7.12502
lthumb 1.28039 10.5841
rfemur -34.0275 1.60449 21.618
rtibia 56.5089
rfoot -22.4723 2.11993
rtoes -14.8831
lfemur -16.262 1.97725 -26.4892
ltibia 34.7745
lfoot -23.0099 -1.95388
ltoes -2.10763
174
root 9.03241 16.1285 -3.93142 8.05644 -4.87738 1.64877
lowerback 0.893612 2.10464 -5.5135
upperback -3.11342 2.6105 -1.30254
thorax -3.90845 1.44591 1.62129
lowerneck -7.03535 -0.205398 -2.75604
upperneck 13.6909 -0.524875 4.19906
head 5.28967 -0.114347 1.72926
rclavicle -3.47376e-014 1.66979e-014
rhumerus -55.1317 -5.61328 -80.1298
rradius 28.3088
rwrist 6.40951
rhand -13.3793 -35.0332
rfingers 7.12502
rthumb 12.7276 -64.6253
lclavicle -3.47376e-014 1.66979e-014
lhumerus -18.2439 0.958741 80.5928
lradius 28.4263
lwrist 8.48622
lhand -25.3855 -19.1639
lfingers 7.12502
lthumb 1.13927 10.8128
rfemur -35.1161 1.46111 21.4196
rtibia 54.9707
rfoot -22.4723 2.43116
rtoes -14.121
lfemur -15.2366 1.82055 -26.7408
ltibia 33.8074
lfoot -22.8929 -2.52885
ltoes 0.56866
175
root 9.03221 16.1614 -3.77019 7.9285 -4.59203 1.95118
lowerback 0.862281 1.93126 -5.79576
upperback -3.046 2.37716 -1.26443
thorax -3.81899 1.33569 1.83212
lowerneck -7.23608 -0.154501 -2.48258
upperneck 14.1031 -0.433426 3.74956
head 5.44816 -0.0823335 1.55256
rclavicle 5.18083e-015 -7.95139e-015
rhumerus -55.421 -5.97899 -79.5699
rradius 28.0306
rwrist 6.80689
rhand -13.4737 -34.7012
rfingers 7.12502
rthumb 12.6365 -64.2989
lclavicle 5.18083e-015 -7.95139e-015
lhumerus -16.9315 -0.0741308 81.011
lradius 28.5546
lwrist 8.4089
lhand -25.7564 -18.9499
lfingers 7.12502
lthumb 0.781025 11.0284
rfemur -35.9861 1.42634 21.1998
rtibia 53.3444
rfoot -22.3203 1.88078
rtoes -15.9576
lfemur -14.0336 1.55498 -27.0037
ltibia 32.7171
lfoot -22.9495 -2.51293
ltoes -0.215797
176
root 9.03815 16.1872 -3.60785 7.73469 -4.25429 2.01805
lowerback 1.0061 1.7446 -5.79686
upperback -3.01345 2.12294 -1.13789
thorax -3.85195 1.21152 1.97203
lowerneck -7.49651 -0.0923034 -2.32551
upperneck 14.5086 -0.33718 3.49334
head 5.61588 -0.0411463 1.456
rclavicle -8.49804e-015 -1.11319e-014
rhumerus -55.7311 -6.58843 -78.7544
rradius 27.7159
rwrist 7.56875
rhand -13.321 -33.4362
rfingers 7.12502
rthumb 12.7837 -63.0248
lclavicle -8.49804e-015 -1.11319e-014
lhumerus -15.8233 -1.02226 81.4012
lradius 28.8856
lwrist 8.30504
lhand -26.3079 -18.2514
lfingers 7.12502
lthumb 0.248329 11.7282
rfemur -36.7763 1.34115 21.2413
rtibia 51.6715
rfoot -22.3082 1.77257
rtoes -19.4867
lfemur -12.6464 1.191 -27.0128
ltibia 31.6391
lfoot -22.8283 -3.07078
ltoes 1.52276
177
root 9.04259 16.2011 -3.43807 7.62325 -3.80247 1.90443
lowerback 0.932993 1.52726 -5.61952
upperback -3.02765 1.84725 -1.00201
thorax -3.80104 1.0706 2.02943
lowerneck -7.40053 -0.0495625 -2.24111
upperneck 14.7242 -0.302623 3.52889
head 5.66551 -0.0173209 1.45687
rclavicle -2.28727e-014 -6.36111e-015
rhumerus -56.3374 -6.93343 -78.1822
rradius 27.4965
rwrist 7.95833
rhand -13.7814 -32.7009
rfingers 7.12502
rthumb 12.3398 -62.3168
lclavicle -2.28727e-014 -6.36111e-015
lhumerus -14.9216 -2.36128 81.6763
lradius 29.3654
lwrist 8.73823
lhand -26.5406 -17.9995
lfingers 7.12502
lthumb 0.0236167 11.9803
rfemur -37.5106 1.24809 21.4449
rtibia 50.0115
rfoot -21.7222 0.604485
rtoes -20.9505
lfemur -11.2164 0.982727 -26.8429
ltibia 30.5353
lfoot -22.3483 -3.79365
ltoes 4.215
178
root 9.04442 16.2016 -3.26384 7.56299 -3.31856 1.84408
lowerback 0.530541 1.35745 -5.3418
upperback -2.87057 1.66196 -0.993369
thorax -3.38519 0.958534 1.90593
lowerneck -7.14406 -0.102725 -2.33199
upperneck 14.616 -0.398062 3.75099
head 5.59065 -0.0558457 1.53381
rclavicle 3.60794e-014 -2.78299e-014
rhumerus -56.6935 -7.57356 -77.5986
rradius 27.1353
rwrist 8.28701
rhand -14.406 -32.3791
rfingers 7.12502
rthumb 11.7376 -62.0302
lclavicle 3.60794e-014 -2.78299e-014
lhumerus -13.63 -3.92788 81.8508
lradius 29.5971
lwrist 9.18856
lhand -26.7355 -19.2704
lfingers 7.12502
lthumb -0.16466 10.7092
rfemur -38.1601 1.03573 21.6108
rtibia 48.3462
rfoot -21.24 0.284456
rtoes -18.5761
lfemur -9.92122 1.2153 -26.7759
ltibia 29.4177
lfoot -21.7657 -3.7082
ltoes 2.05841
